<svg xmlns="http://www.w3.org/2000/svg" width="50" height="50" viewBox="0 0 613.877 613.877"><path fill="#288AC6" d="M355.45 342.266l145.69 175.888c92.346-75.378 112.736-222.378 76.03-307.745L365.81 295.15c2.043 17.498 1.657 34.226-10.358 47.116z"/><path fill="#DCC140" d="M265.61 349.506L105.638 511.228C18.082 439.656 0 288.775 35.877 212.608l211.768 84.902c-2.042 17.5 5.952 39.107 17.966 51.996z"/><path fill="#DE893B" d="M296.938 247.756V20.172c-113.02 3.895-210.64 73.334-253.833 173.786l210.954 84.577c8.978-15.16 25.51-27.804 42.878-30.78z"/><path fill="#66BC46" d="M316.938 247.756V20.172C429.958 24.067 526.6 93.645 569.77 191.83l-211.116 84.64c-8.978-15.157-24.347-25.74-41.716-28.714z"/><path fill="#C74956" d="M306.938 366.972c-7.522 0-14.854-1.404-21.728-4.08-1.963-.623-3.796-1.413-5.447-2.42l-159.4 164.3c50.202 43.06 115.404 69.105 186.575 69.105 65.138 0 128.322-22.2 179.02-62.7L341.093 356.284c-9.702 6.736-21.474 10.687-34.155 10.687z"/><path fill="#FFFFFF" d="M613.877 306.938c0-81.986-31.928-159.065-89.9-217.038-33.773-33.773-74.04-58.688-117.975-73.62l-.128-.042C377.506 6.61 347.614 1.134 316.938.158V0h-20v.16c-59.497 1.9-116.452 20.75-165.305 54.803-47.62 33.195-84.484 78.53-107.093 131.552l-.152-.062-3.615 9.31-.045.114-3.58 9.22.147.06C5.815 237.8 0 271.99 0 306.937c0 81.987 31.927 159.066 89.9 217.04 57.973 57.973 135.052 89.9 217.038 89.9 69.8 0 137.497-23.826 191.78-67.297l.107.13 15.19-13.016-.1-.12c63.653-58.15 99.962-140.19 99.962-226.636zM316.937 20.172C429.958 24.067 526.6 93.645 569.77 191.83l-211.116 84.64c-8.978-15.157-24.347-25.74-41.715-28.714V20.172zm-10 246.733c16.536 0 31.583 10.39 37.443 25.856l.012.032c1.71 4.528 2.58 9.288 2.58 14.146 0 22.074-17.96 40.033-40.034 40.033-8.308 0-16.28-2.53-23.06-7.32l-.034-.024c-10.608-7.51-16.94-19.728-16.94-32.688 0-22.074 17.96-40.033 40.034-40.033zm-10-246.737v227.57c-18.553 3.124-34.244 14.788-42.878 30.796L43.104 193.958C87.095 91 185.035 23.948 296.938 20.168zM20 306.938c0-32.385 5.338-64.07 15.877-94.33l211.768 84.902c-.486 3.072-.74 6.222-.74 9.428 0 15.57 6.086 30.417 16.675 41.495L105.637 511.228C52.807 459.158 20 386.8 20 306.938zm286.938 286.94c-71.17 0-136.373-26.047-186.575-69.107l159.4-164.297c1.776.905 3.598 1.698 5.447 2.418 6.874 2.678 14.206 4.082 21.728 4.082 12.68 0 24.452-3.95 34.154-10.687l144.865 174.89c-50.696 40.503-113.88 62.702-179.02 62.702zm194.203-75.725L355.45 342.266c7.243-9.92 11.52-22.132 11.52-35.327 0-3.985-.39-7.925-1.162-11.79l211.363-84.74c10.812 30.175 16.706 62.682 16.706 96.53 0 80.483-33.673 156.886-92.735 211.213z"/></svg>